<?xml version="1.0" standalone="no"?><!DOCTYPE svg PUBLIC "-//W3C//DTD SVG 1.1//EN" "http://www.w3.org/Graphics/SVG/1.1/DTD/svg11.dtd"><svg xmlns="http://www.w3.org/2000/svg" viewBox="0 0 650 400" version="1.1"><clipPath id="box"><rect x="0" y="0" width="650" height="400" style="fill:none;stroke:none;" /></clipPath><g clip-path="url(#box)"><rect x="0.00" y="0.00" width="650.00" height="400.00" style="fill:#FFFFFF;stroke:none;" /><path d="M0.00 398.00 L650.00 398.00 M0.00 385.00 L650.00 385.00 M0.00 372.00 L650.00 372.00 M0.00 359.00 L650.00 359.00 M0.00 346.00 L650.00 346.00 M0.00 333.00 L650.00 333.00 M0.00 320.00 L650.00 320.00 M0.00 306.00 L650.00 306.00 M0.00 293.00 L650.00 293.00 M0.00 280.00 L650.00 280.00 M0.00 267.00 L650.00 267.00 M0.00 254.00 L650.00 254.00 M0.00 241.00 L650.00 241.00 M0.00 228.00 L650.00 228.00 M0.00 215.00 L650.00 215.00 M0.00 202.00 L650.00 202.00 M0.00 188.00 L650.00 188.00 M0.00 175.00 L650.00 175.00 M0.00 162.00 L650.00 162.00 M0.00 149.00 L650.00 149.00 M0.00 136.00 L650.00 136.00 M0.00 123.00 L650.00 123.00 M0.00 110.00 L650.00 110.00 M0.00 97.00 L650.00 97.00 M0.00 84.00 L650.00 84.00 M0.00 71.00 L650.00 71.00 M0.00 57.00 L650.00 57.00 M0.00 44.00 L650.00 44.00 M0.00 31.00 L650.00 31.00 M0.00 18.00 L650.00 18.00 M0.00 5.00 L650.00 5.00 M1.00 0.00 L1.00 400.00 M14.00 0.00 L14.00 400.00 M27.00 0.00 L27.00 400.00 M40.00 0.00 L40.00 400.00 M54.00 0.00 L54.00 400.00 M67.00 0.00 L67.00 400.00 M80.00 0.00 L80.00 400.00 M93.00 0.00 L93.00 400.00 M106.00 0.00 L106.00 400.00 M119.00 0.00 L119.00 400.00 M132.00 0.00 L132.00 400.00 M145.00 0.00 L145.00 400.00 M158.00 0.00 L158.00 400.00 M171.00 0.00 L171.00 400.00 M185.00 0.00 L185.00 400.00 M198.00 0.00 L198.00 400.00 M211.00 0.00 L211.00 400.00 M224.00 0.00 L224.00 400.00 M237.00 0.00 L237.00 400.00 M250.00 0.00 L250.00 400.00 M263.00 0.00 L263.00 400.00 M276.00 0.00 L276.00 400.00 M289.00 0.00 L289.00 400.00 M303.00 0.00 L303.00 400.00 M316.00 0.00 L316.00 400.00 M329.00 0.00 L329.00 400.00 M342.00 0.00 L342.00 400.00 M355.00 0.00 L355.00 400.00 M368.00 0.00 L368.00 400.00 M381.00 0.00 L381.00 400.00 M394.00 0.00 L394.00 400.00 M407.00 0.00 L407.00 400.00 M421.00 0.00 L421.00 400.00 M434.00 0.00 L434.00 400.00 M447.00 0.00 L447.00 400.00 M460.00 0.00 L460.00 400.00 M473.00 0.00 L473.00 400.00 M486.00 0.00 L486.00 400.00 M499.00 0.00 L499.00 400.00 M512.00 0.00 L512.00 400.00 M525.00 0.00 L525.00 400.00 M538.00 0.00 L538.00 400.00 M552.00 0.00 L552.00 400.00 M565.00 0.00 L565.00 400.00 M578.00 0.00 L578.00 400.00 M591.00 0.00 L591.00 400.00 M604.00 0.00 L604.00 400.00 M617.00 0.00 L617.00 400.00 M630.00 0.00 L630.00 400.00 M643.00 0.00 L643.00 400.00 " style="fill:none;stroke:#D0D0D0;stroke-width:1;" /><path d="M316.18 0.00 L316.18 400.00 " style="fill:none;stroke:#000000;stroke-width:1;" /><path d="M309.68 411.81 L322.68 411.81 M309.68 398.71 L322.68 398.71 M309.68 385.60 L322.68 385.60 M309.68 372.49 L322.68 372.49 M309.68 359.38 L322.68 359.38 M309.68 346.28 L322.68 346.28 M309.68 333.17 L322.68 333.17 M309.68 320.06 L322.68 320.06 M309.68 306.96 L322.68 306.96 M309.68 293.85 L322.68 293.85 M309.68 280.74 L322.68 280.74 M309.68 267.63 L322.68 267.63 M309.68 254.53 L322.68 254.53 M309.68 241.42 L322.68 241.42 M309.68 228.31 L322.68 228.31 M309.68 215.21 L322.68 215.21 M309.68 202.10 L322.68 202.10 M309.68 188.99 L322.68 188.99 M309.68 175.88 L322.68 175.88 M309.68 162.78 L322.68 162.78 M309.68 149.67 L322.68 149.67 M309.68 136.56 L322.68 136.56 M309.68 123.45 L322.68 123.45 M309.68 110.35 L322.68 110.35 M309.68 97.24 L322.68 97.24 M309.68 84.13 L322.68 84.13 M309.68 71.03 L322.68 71.03 M309.68 57.92 L322.68 57.92 M309.68 44.81 L322.68 44.81 M309.68 31.70 L322.68 31.70 M309.68 18.60 L322.68 18.60 M309.68 5.49 L322.68 5.49 " style="fill:none;stroke:#000000;stroke-width:1;" /><path d="M0.00 215.21 L650.00 215.21 " style="fill:none;stroke:#000000;stroke-width:1;" /><path d="M-11.50 208.71 L-11.50 221.71 M1.60 208.71 L1.60 221.71 M14.71 208.71 L14.71 221.71 M27.82 208.71 L27.82 221.71 M40.92 208.71 L40.92 221.71 M54.03 208.71 L54.03 221.71 M67.14 208.71 L67.14 221.71 M80.25 208.71 L80.25 221.71 M93.35 208.71 L93.35 221.71 M106.46 208.71 L106.46 221.71 M119.57 208.71 L119.57 221.71 M132.67 208.71 L132.67 221.71 M145.78 208.71 L145.78 221.71 M158.89 208.71 L158.89 221.71 M172.00 208.71 L172.00 221.71 M185.10 208.71 L185.10 221.71 M198.21 208.71 L198.21 221.71 M211.32 208.71 L211.32 221.71 M224.43 208.71 L224.43 221.71 M237.53 208.71 L237.53 221.71 M250.64 208.71 L250.64 221.71 M263.75 208.71 L263.75 221.71 M276.85 208.71 L276.85 221.71 M289.96 208.71 L289.96 221.71 M303.07 208.71 L303.07 221.71 M316.18 208.71 L316.18 221.71 M329.28 208.71 L329.28 221.71 M342.39 208.71 L342.39 221.71 M355.50 208.71 L355.50 221.71 M368.60 208.71 L368.60 221.71 M381.71 208.71 L381.71 221.71 M394.82 208.71 L394.82 221.71 M407.93 208.71 L407.93 221.71 M421.03 208.71 L421.03 221.71 M434.14 208.71 L434.14 221.71 M447.25 208.71 L447.25 221.71 M460.35 208.71 L460.35 221.71 M473.46 208.71 L473.46 221.71 M486.57 208.71 L486.57 221.71 M499.68 208.71 L499.68 221.71 M512.78 208.71 L512.78 221.71 M525.89 208.71 L525.89 221.71 M539.00 208.71 L539.00 221.71 M552.11 208.71 L552.11 221.71 M565.21 208.71 L565.21 221.71 M578.32 208.71 L578.32 221.71 M591.43 208.71 L591.43 221.71 M604.53 208.71 L604.53 221.71 M617.64 208.71 L617.64 221.71 M630.75 208.71 L630.75 221.71 M643.86 208.71 L643.86 221.71 " style="fill:none;stroke:#000000;stroke-width:1;" /><text x="324.3005775999998" y="388.0987712000007" text-anchor="start" style="font:10px Droid Sans,Trebuchet MS,Arial,Helvetica,sans-serif;stroke:none;fill:#000000">-13</text><text x="324.3005775999998" y="374.9915712000007" text-anchor="start" style="font:10px Droid Sans,Trebuchet MS,Arial,Helvetica,sans-serif;stroke:none;fill:#000000">-12</text><text x="324.3005775999998" y="361.8843712000006" text-anchor="start" style="font:10px Droid Sans,Trebuchet MS,Arial,Helvetica,sans-serif;stroke:none;fill:#000000">-11</text><text x="324.3005775999998" y="348.77717120000057" text-anchor="start" style="font:10px Droid Sans,Trebuchet MS,Arial,Helvetica,sans-serif;stroke:none;fill:#000000">-10</text><text x="324.3005775999998" y="335.66997120000053" text-anchor="start" style="font:10px Droid Sans,Trebuchet MS,Arial,Helvetica,sans-serif;stroke:none;fill:#000000">-9</text><text x="324.3005775999998" y="322.56277120000044" text-anchor="start" style="font:10px Droid Sans,Trebuchet MS,Arial,Helvetica,sans-serif;stroke:none;fill:#000000">-8</text><text x="324.3005775999998" y="309.45557120000035" text-anchor="start" style="font:10px Droid Sans,Trebuchet MS,Arial,Helvetica,sans-serif;stroke:none;fill:#000000">-7</text><text x="324.3005775999998" y="296.3483712000003" text-anchor="start" style="font:10px Droid Sans,Trebuchet MS,Arial,Helvetica,sans-serif;stroke:none;fill:#000000">-6</text><text x="324.3005775999998" y="283.2411712000003" text-anchor="start" style="font:10px Droid Sans,Trebuchet MS,Arial,Helvetica,sans-serif;stroke:none;fill:#000000">-5</text><text x="324.3005775999998" y="270.1339712000002" text-anchor="start" style="font:10px Droid Sans,Trebuchet MS,Arial,Helvetica,sans-serif;stroke:none;fill:#000000">-4</text><text x="324.3005775999998" y="257.02677120000016" text-anchor="start" style="font:10px Droid Sans,Trebuchet MS,Arial,Helvetica,sans-serif;stroke:none;fill:#000000">-3</text><text x="324.3005775999998" y="243.9195712000001" text-anchor="start" style="font:10px Droid Sans,Trebuchet MS,Arial,Helvetica,sans-serif;stroke:none;fill:#000000">-2</text><text x="324.3005775999998" y="230.81237120000006" text-anchor="start" style="font:10px Droid Sans,Trebuchet MS,Arial,Helvetica,sans-serif;stroke:none;fill:#000000">-1</text><text x="324.3005775999998" y="217.7051712" text-anchor="start" style="font:10px Droid Sans,Trebuchet MS,Arial,Helvetica,sans-serif;stroke:none;fill:#000000">0</text><text x="324.3005775999998" y="204.59797119999996" text-anchor="start" style="font:10px Droid Sans,Trebuchet MS,Arial,Helvetica,sans-serif;stroke:none;fill:#000000">1</text><text x="324.3005775999998" y="191.4907711999999" text-anchor="start" style="font:10px Droid Sans,Trebuchet MS,Arial,Helvetica,sans-serif;stroke:none;fill:#000000">2</text><text x="324.3005775999998" y="178.38357119999984" text-anchor="start" style="font:10px Droid Sans,Trebuchet MS,Arial,Helvetica,sans-serif;stroke:none;fill:#000000">3</text><text x="324.3005775999998" y="165.27637119999977" text-anchor="start" style="font:10px Droid Sans,Trebuchet MS,Arial,Helvetica,sans-serif;stroke:none;fill:#000000">4</text><text x="324.3005775999998" y="152.1691711999997" text-anchor="start" style="font:10px Droid Sans,Trebuchet MS,Arial,Helvetica,sans-serif;stroke:none;fill:#000000">5</text><text x="324.3005775999998" y="139.06197119999968" text-anchor="start" style="font:10px Droid Sans,Trebuchet MS,Arial,Helvetica,sans-serif;stroke:none;fill:#000000">6</text><text x="324.3005775999998" y="125.95477119999961" text-anchor="start" style="font:10px Droid Sans,Trebuchet MS,Arial,Helvetica,sans-serif;stroke:none;fill:#000000">7</text><text x="324.3005775999998" y="112.84757119999956" text-anchor="start" style="font:10px Droid Sans,Trebuchet MS,Arial,Helvetica,sans-serif;stroke:none;fill:#000000">8</text><text x="324.3005775999998" y="99.74037119999952" text-anchor="start" style="font:10px Droid Sans,Trebuchet MS,Arial,Helvetica,sans-serif;stroke:none;fill:#000000">9</text><text x="324.3005775999998" y="86.63317119999945" text-anchor="start" style="font:10px Droid Sans,Trebuchet MS,Arial,Helvetica,sans-serif;stroke:none;fill:#000000">10</text><text x="324.3005775999998" y="73.52597119999939" text-anchor="start" style="font:10px Droid Sans,Trebuchet MS,Arial,Helvetica,sans-serif;stroke:none;fill:#000000">11</text><text x="324.3005775999998" y="60.41877119999934" text-anchor="start" style="font:10px Droid Sans,Trebuchet MS,Arial,Helvetica,sans-serif;stroke:none;fill:#000000">12</text><text x="324.3005775999998" y="47.311571199999285" text-anchor="start" style="font:10px Droid Sans,Trebuchet MS,Arial,Helvetica,sans-serif;stroke:none;fill:#000000">13</text><text x="324.3005775999998" y="34.20437119999923" text-anchor="start" style="font:10px Droid Sans,Trebuchet MS,Arial,Helvetica,sans-serif;stroke:none;fill:#000000">14</text><text x="324.3005775999998" y="21.097171199999178" text-anchor="start" style="font:10px Droid Sans,Trebuchet MS,Arial,Helvetica,sans-serif;stroke:none;fill:#000000">15</text><text x="14.709977599998535" y="231.3301712" text-anchor="middle" style="font:10px Droid Sans,Trebuchet MS,Arial,Helvetica,sans-serif;stroke:none;fill:#000000">-23</text><text x="27.81717759999859" y="231.3301712" text-anchor="middle" style="font:10px Droid Sans,Trebuchet MS,Arial,Helvetica,sans-serif;stroke:none;fill:#000000">-22</text><text x="40.92437759999865" y="231.3301712" text-anchor="middle" style="font:10px Droid Sans,Trebuchet MS,Arial,Helvetica,sans-serif;stroke:none;fill:#000000">-21</text><text x="54.031577599998705" y="231.3301712" text-anchor="middle" style="font:10px Droid Sans,Trebuchet MS,Arial,Helvetica,sans-serif;stroke:none;fill:#000000">-20</text><text x="67.13877759999876" y="231.3301712" text-anchor="middle" style="font:10px Droid Sans,Trebuchet MS,Arial,Helvetica,sans-serif;stroke:none;fill:#000000">-19</text><text x="80.24597759999881" y="231.3301712" text-anchor="middle" style="font:10px Droid Sans,Trebuchet MS,Arial,Helvetica,sans-serif;stroke:none;fill:#000000">-18</text><text x="93.35317759999886" y="231.3301712" text-anchor="middle" style="font:10px Droid Sans,Trebuchet MS,Arial,Helvetica,sans-serif;stroke:none;fill:#000000">-17</text><text x="106.46037759999892" y="231.3301712" text-anchor="middle" style="font:10px Droid Sans,Trebuchet MS,Arial,Helvetica,sans-serif;stroke:none;fill:#000000">-16</text><text x="119.56757759999897" y="231.3301712" text-anchor="middle" style="font:10px Droid Sans,Trebuchet MS,Arial,Helvetica,sans-serif;stroke:none;fill:#000000">-15</text><text x="132.67477759999903" y="231.3301712" text-anchor="middle" style="font:10px Droid Sans,Trebuchet MS,Arial,Helvetica,sans-serif;stroke:none;fill:#000000">-14</text><text x="145.7819775999991" y="231.3301712" text-anchor="middle" style="font:10px Droid Sans,Trebuchet MS,Arial,Helvetica,sans-serif;stroke:none;fill:#000000">-13</text><text x="158.88917759999916" y="231.3301712" text-anchor="middle" style="font:10px Droid Sans,Trebuchet MS,Arial,Helvetica,sans-serif;stroke:none;fill:#000000">-12</text><text x="171.9963775999992" y="231.3301712" text-anchor="middle" style="font:10px Droid Sans,Trebuchet MS,Arial,Helvetica,sans-serif;stroke:none;fill:#000000">-11</text><text x="185.10357759999928" y="231.3301712" text-anchor="middle" style="font:10px Droid Sans,Trebuchet MS,Arial,Helvetica,sans-serif;stroke:none;fill:#000000">-10</text><text x="198.21077759999932" y="231.3301712" text-anchor="middle" style="font:10px Droid Sans,Trebuchet MS,Arial,Helvetica,sans-serif;stroke:none;fill:#000000">-9</text><text x="211.31797759999938" y="231.3301712" text-anchor="middle" style="font:10px Droid Sans,Trebuchet MS,Arial,Helvetica,sans-serif;stroke:none;fill:#000000">-8</text><text x="224.42517759999942" y="231.3301712" text-anchor="middle" style="font:10px Droid Sans,Trebuchet MS,Arial,Helvetica,sans-serif;stroke:none;fill:#000000">-7</text><text x="237.5323775999995" y="231.3301712" text-anchor="middle" style="font:10px Droid Sans,Trebuchet MS,Arial,Helvetica,sans-serif;stroke:none;fill:#000000">-6</text><text x="250.63957759999954" y="231.3301712" text-anchor="middle" style="font:10px Droid Sans,Trebuchet MS,Arial,Helvetica,sans-serif;stroke:none;fill:#000000">-5</text><text x="263.74677759999963" y="231.3301712" text-anchor="middle" style="font:10px Droid Sans,Trebuchet MS,Arial,Helvetica,sans-serif;stroke:none;fill:#000000">-4</text><text x="276.85397759999967" y="231.3301712" text-anchor="middle" style="font:10px Droid Sans,Trebuchet MS,Arial,Helvetica,sans-serif;stroke:none;fill:#000000">-3</text><text x="289.9611775999997" y="231.3301712" text-anchor="middle" style="font:10px Droid Sans,Trebuchet MS,Arial,Helvetica,sans-serif;stroke:none;fill:#000000">-2</text><text x="303.0683775999998" y="231.3301712" text-anchor="middle" style="font:10px Droid Sans,Trebuchet MS,Arial,Helvetica,sans-serif;stroke:none;fill:#000000">-1</text><text x="316.1755775999998" y="231.3301712" text-anchor="middle" style="font:10px Droid Sans,Trebuchet MS,Arial,Helvetica,sans-serif;stroke:none;fill:#000000">0</text><text x="329.28277759999986" y="231.3301712" text-anchor="middle" style="font:10px Droid Sans,Trebuchet MS,Arial,Helvetica,sans-serif;stroke:none;fill:#000000">1</text><text x="342.38997759999995" y="231.3301712" text-anchor="middle" style="font:10px Droid Sans,Trebuchet MS,Arial,Helvetica,sans-serif;stroke:none;fill:#000000">2</text><text x="355.49717760000004" y="231.3301712" text-anchor="middle" style="font:10px Droid Sans,Trebuchet MS,Arial,Helvetica,sans-serif;stroke:none;fill:#000000">3</text><text x="368.6043776" y="231.3301712" text-anchor="middle" style="font:10px Droid Sans,Trebuchet MS,Arial,Helvetica,sans-serif;stroke:none;fill:#000000">4</text><text x="381.7115776000001" y="231.3301712" text-anchor="middle" style="font:10px Droid Sans,Trebuchet MS,Arial,Helvetica,sans-serif;stroke:none;fill:#000000">5</text><text x="394.8187776000002" y="231.3301712" text-anchor="middle" style="font:10px Droid Sans,Trebuchet MS,Arial,Helvetica,sans-serif;stroke:none;fill:#000000">6</text><text x="407.92597760000024" y="231.3301712" text-anchor="middle" style="font:10px Droid Sans,Trebuchet MS,Arial,Helvetica,sans-serif;stroke:none;fill:#000000">7</text><text x="421.0331776000003" y="231.3301712" text-anchor="middle" style="font:10px Droid Sans,Trebuchet MS,Arial,Helvetica,sans-serif;stroke:none;fill:#000000">8</text><text x="434.1403776000003" y="231.3301712" text-anchor="middle" style="font:10px Droid Sans,Trebuchet MS,Arial,Helvetica,sans-serif;stroke:none;fill:#000000">9</text><text x="447.2475776000004" y="231.3301712" text-anchor="middle" style="font:10px Droid Sans,Trebuchet MS,Arial,Helvetica,sans-serif;stroke:none;fill:#000000">10</text><text x="460.3547776000005" y="231.3301712" text-anchor="middle" style="font:10px Droid Sans,Trebuchet MS,Arial,Helvetica,sans-serif;stroke:none;fill:#000000">11</text><text x="473.46197760000047" y="231.3301712" text-anchor="middle" style="font:10px Droid Sans,Trebuchet MS,Arial,Helvetica,sans-serif;stroke:none;fill:#000000">12</text><text x="486.56917760000056" y="231.3301712" text-anchor="middle" style="font:10px Droid Sans,Trebuchet MS,Arial,Helvetica,sans-serif;stroke:none;fill:#000000">13</text><text x="499.67637760000065" y="231.3301712" text-anchor="middle" style="font:10px Droid Sans,Trebuchet MS,Arial,Helvetica,sans-serif;stroke:none;fill:#000000">14</text><text x="512.7835776000007" y="231.3301712" text-anchor="middle" style="font:10px Droid Sans,Trebuchet MS,Arial,Helvetica,sans-serif;stroke:none;fill:#000000">15</text><text x="525.8907776000007" y="231.3301712" text-anchor="middle" style="font:10px Droid Sans,Trebuchet MS,Arial,Helvetica,sans-serif;stroke:none;fill:#000000">16</text><text x="538.9979776000008" y="231.3301712" text-anchor="middle" style="font:10px Droid Sans,Trebuchet MS,Arial,Helvetica,sans-serif;stroke:none;fill:#000000">17</text><text x="552.1051776000008" y="231.3301712" text-anchor="middle" style="font:10px Droid Sans,Trebuchet MS,Arial,Helvetica,sans-serif;stroke:none;fill:#000000">18</text><text x="565.2123776000009" y="231.3301712" text-anchor="middle" style="font:10px Droid Sans,Trebuchet MS,Arial,Helvetica,sans-serif;stroke:none;fill:#000000">19</text><text x="578.3195776000009" y="231.3301712" text-anchor="middle" style="font:10px Droid Sans,Trebuchet MS,Arial,Helvetica,sans-serif;stroke:none;fill:#000000">20</text><text x="591.426777600001" y="231.3301712" text-anchor="middle" style="font:10px Droid Sans,Trebuchet MS,Arial,Helvetica,sans-serif;stroke:none;fill:#000000">21</text><text x="604.5339776000011" y="231.3301712" text-anchor="middle" style="font:10px Droid Sans,Trebuchet MS,Arial,Helvetica,sans-serif;stroke:none;fill:#000000">22</text><text x="617.6411776000011" y="231.3301712" text-anchor="middle" style="font:10px Droid Sans,Trebuchet MS,Arial,Helvetica,sans-serif;stroke:none;fill:#000000">23</text><text x="630.7483776000012" y="231.3301712" text-anchor="middle" style="font:10px Droid Sans,Trebuchet MS,Arial,Helvetica,sans-serif;stroke:none;fill:#000000">24</text><path d="M-10.00 200.00 L-0.25 215.21 L0.75 215.21 L2.75 215.21 L4.75 215.21 L6.75 215.21 L8.75 215.21 L10.75 215.21 L12.75 215.21 L14.75 215.21 L16.75 215.21 L18.75 215.21 L20.75 215.21 L22.75 215.21 L24.75 215.21 L26.75 215.21 L28.75 215.21 L30.75 215.21 L32.75 215.21 L34.75 215.21 L36.75 215.21 L38.75 215.21 L40.75 215.21 L42.75 215.21 L44.75 215.21 L46.75 215.21 L48.75 215.21 L50.75 215.21 L52.75 215.21 L54.75 215.21 L56.75 215.21 L58.75 215.21 L60.75 215.21 L62.75 215.21 L64.75 215.21 L66.75 215.21 L68.75 215.21 L70.75 215.21 L72.75 215.21 L74.75 215.21 L76.75 215.21 L78.75 215.21 L80.75 215.21 L82.75 215.21 L84.75 215.21 L86.75 215.21 L88.75 215.21 L90.75 215.21 L92.75 215.21 L94.75 215.21 L96.75 215.21 L98.75 215.21 L100.75 215.21 L102.75 215.21 L104.75 215.21 L106.75 215.21 L108.75 215.21 L110.75 215.21 L112.75 215.21 L114.75 215.21 L116.75 215.21 L118.75 215.21 L120.75 215.21 L122.75 215.21 L124.75 215.21 L126.75 215.21 L128.75 215.21 L130.75 215.21 L132.75 215.21 L134.75 215.21 L136.75 215.21 L138.75 215.21 L140.75 215.21 L142.75 215.21 L144.75 215.21 L146.75 215.21 L148.75 215.21 L150.75 215.21 L152.75 215.21 L154.75 215.21 L156.75 215.21 L158.75 215.21 L160.75 215.21 L162.75 215.21 L164.75 215.21 L166.75 215.21 L168.75 215.21 L170.75 215.21 L172.75 215.21 L174.75 215.21 L176.75 215.21 L178.75 215.21 L180.75 215.21 L182.75 215.21 L184.75 215.21 L186.75 215.21 L188.75 215.21 L190.75 215.21 L192.75 215.21 L194.75 215.21 L196.75 215.21 L198.75 215.21 L200.75 215.21 L202.75 215.21 L204.75 215.21 L206.75 215.21 L208.75 215.21 L210.75 215.21 L212.75 215.21 L214.75 215.21 L216.75 215.21 L218.75 215.21 L220.75 215.21 L222.75 215.21 L224.75 215.21 L226.75 215.21 L228.75 215.21 L230.75 215.21 L232.75 215.21 L234.75 215.21 L236.75 215.21 L238.75 215.21 L240.75 215.21 L242.75 215.21 L244.75 215.21 L246.75 215.21 L248.75 215.21 L250.75 215.21 L252.75 215.21 L254.75 215.21 L256.75 215.21 L258.75 215.21 L260.75 215.21 L262.75 215.21 L264.75 215.21 L266.75 215.21 L268.75 215.21 L270.75 215.21 L272.75 215.21 L274.75 215.21 L276.75 215.21 L278.75 215.21 L280.75 215.21 L282.75 215.21 L284.75 215.21 L286.75 215.21 L288.75 215.21 L290.75 215.21 L292.75 215.21 L294.75 215.21 L296.75 215.21 L298.75 215.21 L300.75 215.21 L302.75 215.21 L304.75 215.21 L306.75 215.21 L308.75 215.21 L310.75 215.21 L312.75 215.21 L314.75 215.21 L316.75 215.21 L318.75 215.21 L320.75 215.21 L322.75 215.21 L324.75 215.21 L326.75 215.21 L328.75 215.21 L330.75 215.21 L332.75 215.21 L334.75 215.21 L336.75 215.21 L338.75 215.21 L340.75 215.21 L342.75 210.88 L343.21 205.33 L343.30 204.33 L343.38 203.33 L343.46 202.33 L343.55 201.33 L343.63 200.33 L343.71 199.33 L343.80 198.33 L343.88 197.33 L343.96 196.33 L344.05 195.33 L344.13 194.33 L344.21 193.33 L344.30 192.33 L344.38 191.33 L344.46 190.33 L344.55 189.33 L344.63 188.33 L344.71 187.33 L344.80 186.33 L344.88 185.33 L344.96 184.33 L345.05 183.33 L345.13 182.33 L345.21 181.33 L345.30 180.33 L345.38 179.33 L345.46 178.33 L345.55 177.33 L345.63 176.33 L345.71 175.33 L345.80 174.33 L345.88 173.33 L345.96 172.33 L346.05 171.33 L346.13 170.33 L346.21 169.33 L346.30 168.33 L346.38 167.33 L346.46 166.33 L346.55 165.33 L346.63 164.33 L346.71 163.33 L346.80 162.33 L346.88 161.33 L346.96 160.33 L347.05 159.33 L347.13 158.33 L347.21 157.33 L347.30 156.33 L347.38 155.33 L347.46 154.33 L347.55 153.33 L347.63 152.33 L347.71 151.33 L347.80 150.33 L347.88 149.33 L347.96 148.33 L348.05 147.33 L348.13 146.33 L348.21 145.33 L348.30 144.33 L348.38 143.33 L348.46 142.33 L348.55 141.33 L348.63 140.33 L348.71 139.33 L348.80 138.33 L348.88 137.33 L348.96 136.33 L349.05 135.33 L349.13 134.33 L349.21 133.33 L349.30 132.33 L349.38 131.33 L349.46 130.33 L349.55 129.33 L349.63 128.33 L349.71 127.33 L349.80 126.33 L349.88 125.33 L349.96 124.33 L350.05 123.33 L350.13 122.33 L350.21 121.33 L350.30 120.33 L350.38 119.33 L350.46 118.33 L350.55 117.33 L350.63 116.33 L350.71 115.33 L350.80 114.33 L350.88 113.33 L350.96 112.33 L351.05 111.33 L351.13 110.33 L351.21 109.33 L351.30 108.33 L351.38 107.33 L351.46 106.33 L351.55 105.33 L351.63 104.33 L351.71 103.33 L351.80 102.33 L351.88 101.33 L351.96 100.33 L352.05 99.33 L352.13 98.33 L352.21 97.33 L352.30 96.33 L352.38 95.33 L352.46 94.33 L352.55 93.33 L352.63 92.33 L352.71 91.33 L352.80 90.33 L352.88 89.33 L352.96 88.33 L353.05 87.33 L353.13 86.33 L353.21 85.33 L353.30 84.33 L353.38 83.33 L353.46 82.33 L353.55 81.33 L353.63 80.33 L353.71 79.33 L353.80 78.33 L353.88 77.33 L353.96 76.33 L354.05 75.33 L354.13 74.33 L354.21 73.33 L354.30 72.33 L354.38 71.33 L354.46 70.33 L354.55 69.33 L354.63 68.33 L354.71 67.33 L354.80 66.33 L354.88 65.33 L354.96 64.33 L355.05 63.33 L355.13 62.33 L355.21 61.33 L355.30 60.33 L355.38 59.33 L355.46 58.33 L355.55 57.33 L355.63 56.33 L355.71 55.33 L355.80 54.33 L355.88 53.33 L355.96 52.33 L356.05 51.33 L356.13 50.33 L356.21 49.33 L356.30 48.33 L356.38 47.33 L356.46 46.33 L356.55 45.33 L356.63 44.33 L356.71 43.33 L356.80 42.33 L356.88 41.33 L356.96 40.33 L357.05 39.33 L357.13 38.33 L357.21 37.33 L357.30 36.33 L357.38 35.33 L357.46 34.33 L357.55 33.33 L357.63 32.33 L357.71 31.33 L357.80 30.33 L357.88 29.33 L357.96 28.33 L358.05 27.33 L358.13 26.33 L358.21 25.33 L358.30 24.33 L358.38 23.33 L358.46 22.33 L358.55 21.33 L358.63 20.33 L358.71 19.33 L358.80 18.33 L358.88 17.33 L358.96 16.33 L359.05 15.33 L359.13 14.33 L359.21 13.33 L359.30 12.33 L359.38 11.33 L359.46 10.33 L359.55 9.33 L359.63 8.33 L359.71 7.33 L359.80 6.33 L359.88 5.33 L359.96 4.33 L360.05 3.33 L360.13 2.33 L360.21 1.33 L360.30 0.33 L360.38 -0.67 " style="fill:none;stroke:#000000;stroke-width:1;" /></g></svg>